<svg width="100" height="100" viewBox="0 0 100 100" fill="none" xmlns="http://www.w3.org/2000/svg">
<g clip-path="url(#clip0_3_2)">
<path d="M9.17045 94L23.6591 6.72727H61.3295C67.8068 6.72727 73.2756 7.90625 77.7358 10.2642C82.196 12.6222 85.4062 16.017 87.3665 20.4489C89.3267 24.8807 89.7955 30.1932 88.7727 36.3864C87.75 42.6364 85.4915 47.9062 81.9972 52.196C78.5313 56.4574 74.1136 59.696 68.7443 61.9119C63.4034 64.0994 57.4091 65.1932 50.7614 65.1932H28.2614L31.3295 46.7841H49.0568C51.8409 46.7841 54.2841 46.4432 56.3864 45.7614C58.4886 45.0511 60.1932 43.9432 61.5 42.4375C62.8068 40.9034 63.6591 38.8864 64.0568 36.3864C64.4545 33.8864 64.2557 31.8551 63.4602 30.2926C62.6648 28.7017 61.3438 27.5369 59.4972 26.7983C57.6506 26.0312 55.3636 25.6477 52.6364 25.6477H44.2841L32.8636 94H9.17045ZM66.9545 53.9432L82.125 94H56.3864L41.7273 53.9432H66.9545Z" fill="black"/>
</g>
<defs>
<clipPath id="clip0_3_2">
<rect width="100" height="100" fill="white"/>
</clipPath>
</defs>
</svg>
